solid OpenSCAD_Model
  facet normal 0 0 -1
    outer loop
      vertex -20 0 -6.5
      vertex -19.563 4.15823 -6.5
      vertex -19.563 -4.15823 -6.5
    endloop
  endfacet
  facet normal 0 0 -1
    outer loop
      vertex -19.563 -4.15823 -6.5
      vertex -19.563 4.15823 -6.5
      vertex -18.2709 8.13473 -6.5
    endloop
  endfacet
  facet normal 0 0 -1
    outer loop
      vertex -19.563 -4.15823 -6.5
      vertex -18.2709 8.13473 -6.5
      vertex -16.1803 11.7557 -6.5
    endloop
  endfacet
  facet normal 0 0 -1
    outer loop
      vertex -19.563 -4.15823 -6.5
      vertex -16.1803 11.7557 -6.5
      vertex -13.3826 14.8629 -6.5
    endloop
  endfacet
  facet normal 0 0 -1
    outer loop
      vertex -19.563 -4.15823 -6.5
      vertex -13.3826 14.8629 -6.5
      vertex -10 17.3205 -6.5
    endloop
  endfacet
  facet normal 0 0 -1
    outer loop
      vertex -19.563 -4.15823 -6.5
      vertex -10 17.3205 -6.5
      vertex -6.18034 19.0211 -6.5
    endloop
  endfacet
  facet normal 0 0 -1
    outer loop
      vertex -19.563 -4.15823 -6.5
      vertex -6.18034 19.0211 -6.5
      vertex -2.09057 19.8904 -6.5
    endloop
  endfacet
  facet normal 0 0 -1
    outer loop
      vertex -19.563 -4.15823 -6.5
      vertex -2.09057 19.8904 -6.5
      vertex 2.09057 19.8904 -6.5
    endloop
  endfacet
  facet normal 0 0 -1
    outer loop
      vertex -19.563 -4.15823 -6.5
      vertex 2.09057 19.8904 -6.5
      vertex 6.18034 19.0211 -6.5
    endloop
  endfacet
  facet normal 0 0 -1
    outer loop
      vertex -19.563 -4.15823 -6.5
      vertex 6.18034 19.0211 -6.5
      vertex 10 17.3205 -6.5
    endloop
  endfacet
  facet normal 0 0 -1
    outer loop
      vertex -19.563 -4.15823 -6.5
      vertex 10 17.3205 -6.5
      vertex 13.3826 14.8629 -6.5
    endloop
  endfacet
  facet normal 0 0 -1
    outer loop
      vertex -19.563 -4.15823 -6.5
      vertex 13.3826 14.8629 -6.5
      vertex 16.1803 11.7557 -6.5
    endloop
  endfacet
  facet normal 0 0 -1
    outer loop
      vertex -19.563 -4.15823 -6.5
      vertex 16.1803 11.7557 -6.5
      vertex 18.2709 8.13473 -6.5
    endloop
  endfacet
  facet normal 0 0 -1
    outer loop
      vertex 1.46066 1.06066 -6.5
      vertex 18.2709 8.13473 -6.5
      vertex 19.563 4.15823 -6.5
    endloop
  endfacet
  facet normal 0 0 -1
    outer loop
      vertex 1.78284 -0.282843 -6.5
      vertex 19.563 4.15823 -6.5
      vertex 20 0 -6.5
    endloop
  endfacet
  facet normal 0 0 -1
    outer loop
      vertex -19.563 -4.15823 -6.5
      vertex 20 0 -6.5
      vertex 19.563 -4.15823 -6.5
    endloop
  endfacet
  facet normal 0 0 -1
    outer loop
      vertex -19.563 -4.15823 -6.5
      vertex 19.563 -4.15823 -6.5
      vertex 18.2709 -8.13473 -6.5
    endloop
  endfacet
  facet normal 0 0 -1
    outer loop
      vertex -19.563 -4.15823 -6.5
      vertex 18.2709 -8.13473 -6.5
      vertex 16.1803 -11.7557 -6.5
    endloop
  endfacet
  facet normal 0 0 -1
    outer loop
      vertex -19.563 -4.15823 -6.5
      vertex 16.1803 -11.7557 -6.5
      vertex 13.3826 -14.8629 -6.5
    endloop
  endfacet
  facet normal 0 0 -1
    outer loop
      vertex -19.563 -4.15823 -6.5
      vertex 13.3826 -14.8629 -6.5
      vertex 10 -17.3205 -6.5
    endloop
  endfacet
  facet normal 0 0 -1
    outer loop
      vertex -19.563 -4.15823 -6.5
      vertex 10 -17.3205 -6.5
      vertex 6.18034 -19.0211 -6.5
    endloop
  endfacet
  facet normal 0 0 -1
    outer loop
      vertex -19.563 -4.15823 -6.5
      vertex 6.18034 -19.0211 -6.5
      vertex 2.09057 -19.8904 -6.5
    endloop
  endfacet
  facet normal 0 0 -1
    outer loop
      vertex -19.563 -4.15823 -6.5
      vertex 2.09057 -19.8904 -6.5
      vertex -2.09057 -19.8904 -6.5
    endloop
  endfacet
  facet normal 0 0 -1
    outer loop
      vertex -19.563 -4.15823 -6.5
      vertex -2.09057 -19.8904 -6.5
      vertex -6.18034 -19.0211 -6.5
    endloop
  endfacet
  facet normal 0 0 -1
    outer loop
      vertex -19.563 -4.15823 -6.5
      vertex -6.18034 -19.0211 -6.5
      vertex -10 -17.3205 -6.5
    endloop
  endfacet
  facet normal 0 0 -1
    outer loop
      vertex -19.563 -4.15823 -6.5
      vertex -10 -17.3205 -6.5
      vertex -13.3826 -14.8629 -6.5
    endloop
  endfacet
  facet normal 0 0 -1
    outer loop
      vertex -19.563 -4.15823 -6.5
      vertex -13.3826 -14.8629 -6.5
      vertex -16.1803 -11.7557 -6.5
    endloop
  endfacet
  facet normal 0 0 -1
    outer loop
      vertex -19.563 -4.15823 -6.5
      vertex -16.1803 -11.7557 -6.5
      vertex -18.2709 -8.13473 -6.5
    endloop
  endfacet
  facet normal 0 0 -1
    outer loop
      vertex -19.563 -4.15823 -6.5
      vertex -1.78284 0.282843 -6.5
      vertex -1.9 0 -6.5
    endloop
  endfacet
  facet normal 0 0 -1
    outer loop
      vertex 1.46066 1.06066 -6.5
      vertex 19.563 4.15823 -6.5
      vertex 1.9 0 -6.5
    endloop
  endfacet
  facet normal 0 0 -1
    outer loop
      vertex -19.563 -4.15823 -6.5
      vertex -1.46066 -1.06066 -6.5
      vertex -1.3435 -1.3435 -6.5
    endloop
  endfacet
  facet normal 0 0 -1
    outer loop
      vertex -19.563 -4.15823 -6.5
      vertex -1.3435 -1.3435 -6.5
      vertex -0.282843 -1.78284 -6.5
    endloop
  endfacet
  facet normal 0 0 -1
    outer loop
      vertex -19.563 -4.15823 -6.5
      vertex -0.282843 -1.78284 -6.5
      vertex 0 -1.9 -6.5
    endloop
  endfacet
  facet normal 0 0 -1
    outer loop
      vertex -19.563 -4.15823 -6.5
      vertex 0 -1.9 -6.5
      vertex 20 0 -6.5
    endloop
  endfacet
  facet normal 0 0 -1
    outer loop
      vertex 1.78284 -0.282843 -6.5
      vertex 20 0 -6.5
      vertex 1.3435 -1.3435 -6.5
    endloop
  endfacet
  facet normal 0 0 -1
    outer loop
      vertex 1.06066 -1.46066 -6.5
      vertex 1.3435 -1.3435 -6.5
      vertex 20 0 -6.5
    endloop
  endfacet
  facet normal 0 0 -1
    outer loop
      vertex 1.9 0 -6.5
      vertex 19.563 4.15823 -6.5
      vertex 1.78284 -0.282843 -6.5
    endloop
  endfacet
  facet normal 0 0 -1
    outer loop
      vertex 1.06066 -1.46066 -6.5
      vertex 20 0 -6.5
      vertex 0 -1.9 -6.5
    endloop
  endfacet
  facet normal 0 0 -1
    outer loop
      vertex 1.3435 1.3435 -6.5
      vertex 18.2709 8.13473 -6.5
      vertex 1.46066 1.06066 -6.5
    endloop
  endfacet
  facet normal 0 0 -1
    outer loop
      vertex 0.282843 1.78284 -6.5
      vertex 18.2709 8.13473 -6.5
      vertex 1.3435 1.3435 -6.5
    endloop
  endfacet
  facet normal 0 0 -1
    outer loop
      vertex 0 1.9 -6.5
      vertex 18.2709 8.13473 -6.5
      vertex 0.282843 1.78284 -6.5
    endloop
  endfacet
  facet normal 0 0 -1
    outer loop
      vertex -1.46066 -1.06066 -6.5
      vertex -19.563 -4.15823 -6.5
      vertex -1.9 0 -6.5
    endloop
  endfacet
  facet normal 0 0 -1
    outer loop
      vertex -19.563 -4.15823 -6.5
      vertex 18.2709 8.13473 -6.5
      vertex 0 1.9 -6.5
    endloop
  endfacet
  facet normal 0 0 -1
    outer loop
      vertex -19.563 -4.15823 -6.5
      vertex 0 1.9 -6.5
      vertex -1.06066 1.46066 -6.5
    endloop
  endfacet
  facet normal 0 0 -1
    outer loop
      vertex -19.563 -4.15823 -6.5
      vertex -1.06066 1.46066 -6.5
      vertex -1.3435 1.3435 -6.5
    endloop
  endfacet
  facet normal 0 0 -1
    outer loop
      vertex -1.78284 0.282843 -6.5
      vertex -19.563 -4.15823 -6.5
      vertex -1.3435 1.3435 -6.5
    endloop
  endfacet
  facet normal -0.950993 0.0999533 0.292613
    outer loop
      vertex -19.563 4.15823 -6.5
      vertex -20 0 -6.5
      vertex -15.6504 3.32659 6.5
    endloop
  endfacet
  facet normal -0.950993 0.0999532 0.292613
    outer loop
      vertex -15.6504 3.32659 6.5
      vertex -20 0 -6.5
      vertex -16 0 6.5
    endloop
  endfacet
  facet normal -0.950993 -0.0999533 0.292613
    outer loop
      vertex -16 0 6.5
      vertex -20 0 -6.5
      vertex -19.563 -4.15823 -6.5
    endloop
  endfacet
  facet normal -0.950993 -0.0999532 0.292613
    outer loop
      vertex -16 0 6.5
      vertex -19.563 -4.15823 -6.5
      vertex -15.6504 -3.32659 6.5
    endloop
  endfacet
  facet normal -0.90943 -0.295492 0.292613
    outer loop
      vertex -15.6504 -3.32659 6.5
      vertex -19.563 -4.15823 -6.5
      vertex -18.2709 -8.13473 -6.5
    endloop
  endfacet
  facet normal -0.90943 -0.295492 0.292613
    outer loop
      vertex -15.6504 -3.32659 6.5
      vertex -18.2709 -8.13473 -6.5
      vertex -14.6167 -6.50779 6.5
    endloop
  endfacet
  facet normal -0.82812 -0.478115 0.292613
    outer loop
      vertex -14.6167 -6.50779 6.5
      vertex -18.2709 -8.13473 -6.5
      vertex -16.1803 -11.7557 -6.5
    endloop
  endfacet
  facet normal -0.82812 -0.478115 0.292613
    outer loop
      vertex -14.6167 -6.50779 6.5
      vertex -16.1803 -11.7557 -6.5
      vertex -12.9443 -9.40456 6.5
    endloop
  endfacet
  facet normal -0.710618 -0.639843 0.292613
    outer loop
      vertex -12.9443 -9.40456 6.5
      vertex -16.1803 -11.7557 -6.5
      vertex -13.3826 -14.8629 -6.5
    endloop
  endfacet
  facet normal -0.710618 -0.639843 0.292613
    outer loop
      vertex -12.9443 -9.40456 6.5
      vertex -13.3826 -14.8629 -6.5
      vertex -10.7061 -11.8903 6.5
    endloop
  endfacet
  facet normal -0.562058 -0.773607 0.292613
    outer loop
      vertex -10.7061 -11.8903 6.5
      vertex -13.3826 -14.8629 -6.5
      vertex -10 -17.3205 -6.5
    endloop
  endfacet
  facet normal -0.562058 -0.773607 0.292613
    outer loop
      vertex -8 -13.8564 6.5
      vertex -10.7061 -11.8903 6.5
      vertex -10 -17.3205 -6.5
    endloop
  endfacet
  facet normal -0.388934 -0.87356 0.292613
    outer loop
      vertex -8 -13.8564 6.5
      vertex -10 -17.3205 -6.5
      vertex -6.18034 -19.0211 -6.5
    endloop
  endfacet
  facet normal -0.388934 -0.87356 0.292613
    outer loop
      vertex -4.94427 -15.2169 6.5
      vertex -8 -13.8564 6.5
      vertex -6.18034 -19.0211 -6.5
    endloop
  endfacet
  facet normal -0.198812 -0.935335 0.292613
    outer loop
      vertex -4.94427 -15.2169 6.5
      vertex -6.18034 -19.0211 -6.5
      vertex -2.09057 -19.8904 -6.5
    endloop
  endfacet
  facet normal -0.198812 -0.935335 0.292613
    outer loop
      vertex -1.67246 -15.9123 6.5
      vertex -4.94427 -15.2169 6.5
      vertex -2.09057 -19.8904 -6.5
    endloop
  endfacet
  facet normal 0 -0.956231 0.292613
    outer loop
      vertex -1.67246 -15.9123 6.5
      vertex -2.09057 -19.8904 -6.5
      vertex 2.09057 -19.8904 -6.5
    endloop
  endfacet
  facet normal 0 -0.956231 0.292613
    outer loop
      vertex 1.67246 -15.9123 6.5
      vertex -1.67246 -15.9123 6.5
      vertex 2.09057 -19.8904 -6.5
    endloop
  endfacet
  facet normal 0.198812 -0.935335 0.292613
    outer loop
      vertex 6.18034 -19.0211 -6.5
      vertex 1.67246 -15.9123 6.5
      vertex 2.09057 -19.8904 -6.5
    endloop
  endfacet
  facet normal 0.198812 -0.935335 0.292613
    outer loop
      vertex 4.94427 -15.2169 6.5
      vertex 1.67246 -15.9123 6.5
      vertex 6.18034 -19.0211 -6.5
    endloop
  endfacet
  facet normal 0.388934 -0.87356 0.292613
    outer loop
      vertex 10 -17.3205 -6.5
      vertex 4.94427 -15.2169 6.5
      vertex 6.18034 -19.0211 -6.5
    endloop
  endfacet
  facet normal 0.388934 -0.87356 0.292613
    outer loop
      vertex 8 -13.8564 6.5
      vertex 4.94427 -15.2169 6.5
      vertex 10 -17.3205 -6.5
    endloop
  endfacet
  facet normal 0.562058 -0.773607 0.292613
    outer loop
      vertex 13.3826 -14.8629 -6.5
      vertex 8 -13.8564 6.5
      vertex 10 -17.3205 -6.5
    endloop
  endfacet
  facet normal 0.562058 -0.773607 0.292613
    outer loop
      vertex 10.7061 -11.8903 6.5
      vertex 8 -13.8564 6.5
      vertex 13.3826 -14.8629 -6.5
    endloop
  endfacet
  facet normal 0.710618 -0.639843 0.292613
    outer loop
      vertex 16.1803 -11.7557 -6.5
      vertex 10.7061 -11.8903 6.5
      vertex 13.3826 -14.8629 -6.5
    endloop
  endfacet
  facet normal 0.710618 -0.639843 0.292613
    outer loop
      vertex 12.9443 -9.40456 6.5
      vertex 10.7061 -11.8903 6.5
      vertex 16.1803 -11.7557 -6.5
    endloop
  endfacet
  facet normal 0.82812 -0.478115 0.292613
    outer loop
      vertex 18.2709 -8.13473 -6.5
      vertex 12.9443 -9.40456 6.5
      vertex 16.1803 -11.7557 -6.5
    endloop
  endfacet
  facet normal 0.82812 -0.478115 0.292613
    outer loop
      vertex 14.6167 -6.50779 6.5
      vertex 12.9443 -9.40456 6.5
      vertex 18.2709 -8.13473 -6.5
    endloop
  endfacet
  facet normal 0.90943 -0.295492 0.292613
    outer loop
      vertex 19.563 -4.15823 -6.5
      vertex 14.6167 -6.50779 6.5
      vertex 18.2709 -8.13473 -6.5
    endloop
  endfacet
  facet normal 0.90943 -0.295492 0.292613
    outer loop
      vertex 15.6504 -3.32659 6.5
      vertex 14.6167 -6.50779 6.5
      vertex 19.563 -4.15823 -6.5
    endloop
  endfacet
  facet normal 0.950993 -0.0999533 0.292613
    outer loop
      vertex 20 0 -6.5
      vertex 15.6504 -3.32659 6.5
      vertex 19.563 -4.15823 -6.5
    endloop
  endfacet
  facet normal 0.950993 -0.0999532 0.292613
    outer loop
      vertex 16 0 6.5
      vertex 15.6504 -3.32659 6.5
      vertex 20 0 -6.5
    endloop
  endfacet
  facet normal 0.950993 0.0999533 0.292613
    outer loop
      vertex 19.563 4.15823 -6.5
      vertex 16 0 6.5
      vertex 20 0 -6.5
    endloop
  endfacet
  facet normal 0.950993 0.0999532 0.292613
    outer loop
      vertex 19.563 4.15823 -6.5
      vertex 15.6504 3.32659 6.5
      vertex 16 0 6.5
    endloop
  endfacet
  facet normal 0.90943 0.295492 0.292613
    outer loop
      vertex 18.2709 8.13473 -6.5
      vertex 15.6504 3.32659 6.5
      vertex 19.563 4.15823 -6.5
    endloop
  endfacet
  facet normal 0.90943 0.295492 0.292613
    outer loop
      vertex 18.2709 8.13473 -6.5
      vertex 14.6167 6.50779 6.5
      vertex 15.6504 3.32659 6.5
    endloop
  endfacet
  facet normal 0.82812 0.478115 0.292613
    outer loop
      vertex 16.1803 11.7557 -6.5
      vertex 14.6167 6.50779 6.5
      vertex 18.2709 8.13473 -6.5
    endloop
  endfacet
  facet normal 0.82812 0.478115 0.292613
    outer loop
      vertex 16.1803 11.7557 -6.5
      vertex 12.9443 9.40456 6.5
      vertex 14.6167 6.50779 6.5
    endloop
  endfacet
  facet normal 0.710618 0.639843 0.292613
    outer loop
      vertex 13.3826 14.8629 -6.5
      vertex 12.9443 9.40456 6.5
      vertex 16.1803 11.7557 -6.5
    endloop
  endfacet
  facet normal 0.710618 0.639843 0.292613
    outer loop
      vertex 13.3826 14.8629 -6.5
      vertex 10.7061 11.8903 6.5
      vertex 12.9443 9.40456 6.5
    endloop
  endfacet
  facet normal 0.562058 0.773607 0.292613
    outer loop
      vertex 13.3826 14.8629 -6.5
      vertex 10 17.3205 -6.5
      vertex 10.7061 11.8903 6.5
    endloop
  endfacet
  facet normal 0.562058 0.773607 0.292613
    outer loop
      vertex 10 17.3205 -6.5
      vertex 8 13.8564 6.5
      vertex 10.7061 11.8903 6.5
    endloop
  endfacet
  facet normal 0.388934 0.87356 0.292613
    outer loop
      vertex 10 17.3205 -6.5
      vertex 6.18034 19.0211 -6.5
      vertex 8 13.8564 6.5
    endloop
  endfacet
  facet normal 0.388934 0.87356 0.292613
    outer loop
      vertex 6.18034 19.0211 -6.5
      vertex 4.94427 15.2169 6.5
      vertex 8 13.8564 6.5
    endloop
  endfacet
  facet normal 0.198812 0.935335 0.292613
    outer loop
      vertex 6.18034 19.0211 -6.5
      vertex 2.09057 19.8904 -6.5
      vertex 4.94427 15.2169 6.5
    endloop
  endfacet
  facet normal 0.198812 0.935335 0.292613
    outer loop
      vertex 2.09057 19.8904 -6.5
      vertex 1.67246 15.9123 6.5
      vertex 4.94427 15.2169 6.5
    endloop
  endfacet
  facet normal 0 0.956231 0.292613
    outer loop
      vertex -2.09057 19.8904 -6.5
      vertex -1.67246 15.9123 6.5
      vertex 2.09057 19.8904 -6.5
    endloop
  endfacet
  facet normal 0 0.956231 0.292613
    outer loop
      vertex 2.09057 19.8904 -6.5
      vertex -1.67246 15.9123 6.5
      vertex 1.67246 15.9123 6.5
    endloop
  endfacet
  facet normal -0.198812 0.935335 0.292613
    outer loop
      vertex -2.09057 19.8904 -6.5
      vertex -6.18034 19.0211 -6.5
      vertex -1.67246 15.9123 6.5
    endloop
  endfacet
  facet normal -0.198812 0.935335 0.292613
    outer loop
      vertex -1.67246 15.9123 6.5
      vertex -6.18034 19.0211 -6.5
      vertex -4.94427 15.2169 6.5
    endloop
  endfacet
  facet normal -0.388934 0.87356 0.292613
    outer loop
      vertex -6.18034 19.0211 -6.5
      vertex -10 17.3205 -6.5
      vertex -4.94427 15.2169 6.5
    endloop
  endfacet
  facet normal -0.388934 0.87356 0.292613
    outer loop
      vertex -4.94427 15.2169 6.5
      vertex -10 17.3205 -6.5
      vertex -8 13.8564 6.5
    endloop
  endfacet
  facet normal -0.562058 0.773607 0.292613
    outer loop
      vertex -10 17.3205 -6.5
      vertex -13.3826 14.8629 -6.5
      vertex -8 13.8564 6.5
    endloop
  endfacet
  facet normal -0.562058 0.773607 0.292613
    outer loop
      vertex -8 13.8564 6.5
      vertex -13.3826 14.8629 -6.5
      vertex -10.7061 11.8903 6.5
    endloop
  endfacet
  facet normal -0.710618 0.639843 0.292613
    outer loop
      vertex -13.3826 14.8629 -6.5
      vertex -16.1803 11.7557 -6.5
      vertex -10.7061 11.8903 6.5
    endloop
  endfacet
  facet normal -0.710618 0.639843 0.292613
    outer loop
      vertex -10.7061 11.8903 6.5
      vertex -16.1803 11.7557 -6.5
      vertex -12.9443 9.40456 6.5
    endloop
  endfacet
  facet normal -0.82812 0.478115 0.292613
    outer loop
      vertex -16.1803 11.7557 -6.5
      vertex -18.2709 8.13473 -6.5
      vertex -12.9443 9.40456 6.5
    endloop
  endfacet
  facet normal -0.82812 0.478115 0.292613
    outer loop
      vertex -12.9443 9.40456 6.5
      vertex -18.2709 8.13473 -6.5
      vertex -14.6167 6.50779 6.5
    endloop
  endfacet
  facet normal -0.90943 0.295492 0.292613
    outer loop
      vertex -18.2709 8.13473 -6.5
      vertex -19.563 4.15823 -6.5
      vertex -14.6167 6.50779 6.5
    endloop
  endfacet
  facet normal -0.90943 0.295492 0.292613
    outer loop
      vertex -14.6167 6.50779 6.5
      vertex -19.563 4.15823 -6.5
      vertex -15.6504 3.32659 6.5
    endloop
  endfacet
  facet normal 0.918674 -0.380527 -0.106001
    outer loop
      vertex -1.3435 1.3435 -6.5
      vertex -0.707107 0.707107 1.3
      vertex -1.78284 0.282843 -6.5
    endloop
  endfacet
  facet normal 0.918675 -0.380527 -0.106001
    outer loop
      vertex -1.78284 0.282843 -6.5
      vertex -0.707107 0.707107 1.3
      vertex -1 0 1.3
    endloop
  endfacet
  facet normal 0.918675 -0.380527 -0.106001
    outer loop
      vertex -1.9 0 -6.5
      vertex -1.78284 0.282843 -6.5
      vertex -1 0 1.3
    endloop
  endfacet
  facet normal 0.380527 -0.918675 -0.106001
    outer loop
      vertex -1.06066 1.46066 -6.5
      vertex 0 1 1.3
      vertex -0.707107 0.707107 1.3
    endloop
  endfacet
  facet normal 0.380527 -0.918675 -0.106001
    outer loop
      vertex -1.3435 1.3435 -6.5
      vertex -1.06066 1.46066 -6.5
      vertex -0.707107 0.707107 1.3
    endloop
  endfacet
  facet normal 0.380527 -0.918674 -0.106001
    outer loop
      vertex 0 1.9 -6.5
      vertex 0 1 1.3
      vertex -1.06066 1.46066 -6.5
    endloop
  endfacet
  facet normal -0.380527 -0.918675 -0.106001
    outer loop
      vertex 0 1.9 -6.5
      vertex 0.282843 1.78284 -6.5
      vertex 0.707107 0.707107 1.3
    endloop
  endfacet
  facet normal -0.380527 -0.918675 -0.106001
    outer loop
      vertex 0 1 1.3
      vertex 0 1.9 -6.5
      vertex 0.707107 0.707107 1.3
    endloop
  endfacet
  facet normal -0.380527 -0.918674 -0.106001
    outer loop
      vertex 1.3435 1.3435 -6.5
      vertex 0.707107 0.707107 1.3
      vertex 0.282843 1.78284 -6.5
    endloop
  endfacet
  facet normal -0.918675 -0.380527 -0.106001
    outer loop
      vertex 1.46066 1.06066 -6.5
      vertex 1 0 1.3
      vertex 1.3435 1.3435 -6.5
    endloop
  endfacet
  facet normal -0.918675 -0.380527 -0.106001
    outer loop
      vertex 1.3435 1.3435 -6.5
      vertex 1 0 1.3
      vertex 0.707107 0.707107 1.3
    endloop
  endfacet
  facet normal -0.918674 -0.380527 -0.106001
    outer loop
      vertex 1.46066 1.06066 -6.5
      vertex 1.9 0 -6.5
      vertex 1 0 1.3
    endloop
  endfacet
  facet normal -0.918675 0.380527 -0.106001
    outer loop
      vertex 1.9 0 -6.5
      vertex 1.78284 -0.282843 -6.5
      vertex 1 0 1.3
    endloop
  endfacet
  facet normal -0.918675 0.380527 -0.106001
    outer loop
      vertex 1 0 1.3
      vertex 1.78284 -0.282843 -6.5
      vertex 0.707107 -0.707107 1.3
    endloop
  endfacet
  facet normal -0.918674 0.380527 -0.106001
    outer loop
      vertex 1.78284 -0.282843 -6.5
      vertex 1.3435 -1.3435 -6.5
      vertex 0.707107 -0.707107 1.3
    endloop
  endfacet
  facet normal -0.380527 0.918675 -0.106001
    outer loop
      vertex 1.3435 -1.3435 -6.5
      vertex 1.06066 -1.46066 -6.5
      vertex 0.707107 -0.707107 1.3
    endloop
  endfacet
  facet normal -0.380527 0.918675 -0.106001
    outer loop
      vertex 0.707107 -0.707107 1.3
      vertex 1.06066 -1.46066 -6.5
      vertex 0 -1 1.3
    endloop
  endfacet
  facet normal -0.380527 0.918674 -0.106001
    outer loop
      vertex 0 -1 1.3
      vertex 1.06066 -1.46066 -6.5
      vertex 0 -1.9 -6.5
    endloop
  endfacet
  facet normal 0.380527 0.918675 -0.106001
    outer loop
      vertex 0 -1.9 -6.5
      vertex -0.282843 -1.78284 -6.5
      vertex 0 -1 1.3
    endloop
  endfacet
  facet normal 0.380527 0.918675 -0.106001
    outer loop
      vertex 0 -1 1.3
      vertex -0.282843 -1.78284 -6.5
      vertex -0.707107 -0.707107 1.3
    endloop
  endfacet
  facet normal 0.380527 0.918674 -0.106001
    outer loop
      vertex -0.707107 -0.707107 1.3
      vertex -0.282843 -1.78284 -6.5
      vertex -1.3435 -1.3435 -6.5
    endloop
  endfacet
  facet normal 0.918675 0.380527 -0.106001
    outer loop
      vertex -1 0 1.3
      vertex -0.707107 -0.707107 1.3
      vertex -1.3435 -1.3435 -6.5
    endloop
  endfacet
  facet normal 0.918675 0.380527 -0.106001
    outer loop
      vertex -1.46066 -1.06066 -6.5
      vertex -1 0 1.3
      vertex -1.3435 -1.3435 -6.5
    endloop
  endfacet
  facet normal 0.918674 0.380527 -0.106001
    outer loop
      vertex -1 0 1.3
      vertex -1.46066 -1.06066 -6.5
      vertex -1.9 0 -6.5
    endloop
  endfacet
  facet normal 0 0 1
    outer loop
      vertex -15.6504 3.32659 6.5
      vertex -16 0 6.5
      vertex -15.6504 -3.32659 6.5
    endloop
  endfacet
  facet normal 0 0 1
    outer loop
      vertex -12.9443 -9.40456 6.5
      vertex -15.6504 3.32659 6.5
      vertex -14.6167 -6.50779 6.5
    endloop
  endfacet
  facet normal 0 0 1
    outer loop
      vertex -14.6167 -6.50779 6.5
      vertex -15.6504 3.32659 6.5
      vertex -15.6504 -3.32659 6.5
    endloop
  endfacet
  facet normal 0 0 1
    outer loop
      vertex -10.7061 -11.8903 6.5
      vertex -15.6504 3.32659 6.5
      vertex -12.9443 -9.40456 6.5
    endloop
  endfacet
  facet normal 0 0 1
    outer loop
      vertex -8 -13.8564 6.5
      vertex -15.6504 3.32659 6.5
      vertex -10.7061 -11.8903 6.5
    endloop
  endfacet
  facet normal 0 0 1
    outer loop
      vertex -4.94427 -15.2169 6.5
      vertex -15.6504 3.32659 6.5
      vertex -8 -13.8564 6.5
    endloop
  endfacet
  facet normal 0 0 1
    outer loop
      vertex -1.67246 -15.9123 6.5
      vertex -15.6504 3.32659 6.5
      vertex -4.94427 -15.2169 6.5
    endloop
  endfacet
  facet normal 0 0 1
    outer loop
      vertex 1.67246 -15.9123 6.5
      vertex -15.6504 3.32659 6.5
      vertex -1.67246 -15.9123 6.5
    endloop
  endfacet
  facet normal 0 0 1
    outer loop
      vertex 4.94427 -15.2169 6.5
      vertex -15.6504 3.32659 6.5
      vertex 1.67246 -15.9123 6.5
    endloop
  endfacet
  facet normal 0 0 1
    outer loop
      vertex 8 -13.8564 6.5
      vertex -15.6504 3.32659 6.5
      vertex 4.94427 -15.2169 6.5
    endloop
  endfacet
  facet normal 0 0 1
    outer loop
      vertex 10.7061 -11.8903 6.5
      vertex -15.6504 3.32659 6.5
      vertex 8 -13.8564 6.5
    endloop
  endfacet
  facet normal 0 0 1
    outer loop
      vertex 12.9443 -9.40456 6.5
      vertex -15.6504 3.32659 6.5
      vertex 10.7061 -11.8903 6.5
    endloop
  endfacet
  facet normal 0 0 1
    outer loop
      vertex 14.6167 -6.50779 6.5
      vertex -15.6504 3.32659 6.5
      vertex 12.9443 -9.40456 6.5
    endloop
  endfacet
  facet normal 0 0 1
    outer loop
      vertex 15.6504 -3.32659 6.5
      vertex -15.6504 3.32659 6.5
      vertex 14.6167 -6.50779 6.5
    endloop
  endfacet
  facet normal 0 0 1
    outer loop
      vertex 16 0 6.5
      vertex -15.6504 3.32659 6.5
      vertex 15.6504 -3.32659 6.5
    endloop
  endfacet
  facet normal 0 0 1
    outer loop
      vertex 15.6504 3.32659 6.5
      vertex -15.6504 3.32659 6.5
      vertex 16 0 6.5
    endloop
  endfacet
  facet normal 0 0 1
    outer loop
      vertex 14.6167 6.50779 6.5
      vertex -15.6504 3.32659 6.5
      vertex 15.6504 3.32659 6.5
    endloop
  endfacet
  facet normal 0 0 1
    outer loop
      vertex 12.9443 9.40456 6.5
      vertex -15.6504 3.32659 6.5
      vertex 14.6167 6.50779 6.5
    endloop
  endfacet
  facet normal 0 0 1
    outer loop
      vertex 10.7061 11.8903 6.5
      vertex -15.6504 3.32659 6.5
      vertex 12.9443 9.40456 6.5
    endloop
  endfacet
  facet normal 0 0 1
    outer loop
      vertex 2.59808 10.5 6.5
      vertex -15.6504 3.32659 6.5
      vertex 10.7061 11.8903 6.5
    endloop
  endfacet
  facet normal 0 0 1
    outer loop
      vertex -4.94427 15.2169 6.5
      vertex -15.6504 3.32659 6.5
      vertex -1.67246 15.9123 6.5
    endloop
  endfacet
  facet normal 0 0 1
    outer loop
      vertex -8 13.8564 6.5
      vertex -15.6504 3.32659 6.5
      vertex -4.94427 15.2169 6.5
    endloop
  endfacet
  facet normal 0 0 1
    outer loop
      vertex -10.7061 11.8903 6.5
      vertex -15.6504 3.32659 6.5
      vertex -8 13.8564 6.5
    endloop
  endfacet
  facet normal 0 0 1
    outer loop
      vertex -12.9443 9.40456 6.5
      vertex -15.6504 3.32659 6.5
      vertex -10.7061 11.8903 6.5
    endloop
  endfacet
  facet normal 0 0 1
    outer loop
      vertex -14.6167 6.50779 6.5
      vertex -15.6504 3.32659 6.5
      vertex -12.9443 9.40456 6.5
    endloop
  endfacet
  facet normal 0 0 1
    outer loop
      vertex -2.16506 11.25 6.5
      vertex 1.05677e-007 15 6.5
      vertex -15.6504 3.32659 6.5
    endloop
  endfacet
  facet normal 0 0 1
    outer loop
      vertex -1.67246 15.9123 6.5
      vertex 1.05677e-007 15 6.5
      vertex 1.67246 15.9123 6.5
    endloop
  endfacet
  facet normal 0 0 1
    outer loop
      vertex -1.67246 15.9123 6.5
      vertex -15.6504 3.32659 6.5
      vertex 1.05677e-007 15 6.5
    endloop
  endfacet
  facet normal 0 0 1
    outer loop
      vertex 8 13.8564 6.5
      vertex 2.59808 10.5 6.5
      vertex 10.7061 11.8903 6.5
    endloop
  endfacet
  facet normal 0 0 1
    outer loop
      vertex 1.73205 10.5 6.5
      vertex -15.6504 3.32659 6.5
      vertex 2.59808 10.5 6.5
    endloop
  endfacet
  facet normal 0 0 1
    outer loop
      vertex -2.59808 10.5 6.5
      vertex -2.16506 11.25 6.5
      vertex -15.6504 3.32659 6.5
    endloop
  endfacet
  facet normal 0 0 1
    outer loop
      vertex 1.73205 10.5 6.5
      vertex -2.59808 10.5 6.5
      vertex -15.6504 3.32659 6.5
    endloop
  endfacet
  facet normal 0 0 1
    outer loop
      vertex 1.05677e-007 15 6.5
      vertex 4.94427 15.2169 6.5
      vertex 1.67246 15.9123 6.5
    endloop
  endfacet
  facet normal 0 0 1
    outer loop
      vertex 1.05677e-007 15 6.5
      vertex 8 13.8564 6.5
      vertex 4.94427 15.2169 6.5
    endloop
  endfacet
  facet normal 0 0 1
    outer loop
      vertex 1.05677e-007 15 6.5
      vertex 2.59808 10.5 6.5
      vertex 8 13.8564 6.5
    endloop
  endfacet
  facet normal 0 0 -1
    outer loop
      vertex 0 1 1.3
      vertex 0.707107 0.707107 1.3
      vertex -0.707107 0.707107 1.3
    endloop
  endfacet
  facet normal 0 0 -1
    outer loop
      vertex -0.707107 0.707107 1.3
      vertex 0.707107 0.707107 1.3
      vertex 1 0 1.3
    endloop
  endfacet
  facet normal 0 0 -1
    outer loop
      vertex -0.707107 0.707107 1.3
      vertex 1 0 1.3
      vertex 0.707107 -0.707107 1.3
    endloop
  endfacet
  facet normal 0 0 -1
    outer loop
      vertex -0.707107 0.707107 1.3
      vertex 0.707107 -0.707107 1.3
      vertex 0 -1 1.3
    endloop
  endfacet
  facet normal 0 0 -1
    outer loop
      vertex -0.707107 0.707107 1.3
      vertex 0 -1 1.3
      vertex -0.707107 -0.707107 1.3
    endloop
  endfacet
  facet normal 0 0 -1
    outer loop
      vertex -0.707107 0.707107 1.3
      vertex -0.707107 -0.707107 1.3
      vertex -1 0 1.3
    endloop
  endfacet
  facet normal 0.855955 -0.494186 -0.152057
    outer loop
      vertex -2.16506 11.25 6.5
      vertex -2.59808 10.5 6.5
      vertex -4.33013 9.5 0
    endloop
  endfacet
  facet normal -1.87022e-009 0.988372 -0.152057
    outer loop
      vertex 1.73205 10.5 6.5
      vertex 4.33013 9.5 0
      vertex -2.59808 10.5 6.5
    endloop
  endfacet
  facet normal -1.87022e-009 0.988372 -0.152057
    outer loop
      vertex -2.59808 10.5 6.5
      vertex 4.33013 9.5 0
      vertex -4.33013 9.5 0
    endloop
  endfacet
  facet normal -1.99545e-007 0.988372 -0.152057
    outer loop
      vertex 2.59808 10.5 6.5
      vertex 4.33013 9.5 0
      vertex 1.73205 10.5 6.5
    endloop
  endfacet
  facet normal -0.855955 -0.494186 -0.152057
    outer loop
      vertex 2.59808 10.5 6.5
      vertex 1.05677e-007 15 6.5
      vertex 4.33013 9.5 0
    endloop
  endfacet
  facet normal -0.855955 -0.494186 -0.152057
    outer loop
      vertex 4.33013 9.5 0
      vertex 1.05677e-007 15 6.5
      vertex 9.4611e-009 17 0
    endloop
  endfacet
  facet normal 0.855955 -0.494186 -0.152057
    outer loop
      vertex 9.4611e-009 17 0
      vertex 1.05677e-007 15 6.5
      vertex -2.16506 11.25 6.5
    endloop
  endfacet
  facet normal 0.855955 -0.494186 -0.152057
    outer loop
      vertex -4.33013 9.5 0
      vertex 9.4611e-009 17 0
      vertex -2.16506 11.25 6.5
    endloop
  endfacet
  facet normal 0 0 1
    outer loop
      vertex 4.33013 9.5 0
      vertex 9.4611e-009 17 0
      vertex -4.33013 9.5 0
    endloop
  endfacet
endsolid OpenSCAD_Model
